<?xml version="1.0" encoding="UTF-8" standalone="no"?>
<svg
   width="157"
   height="256"
   viewBox="0 0 157 256"
   fill="none"
   version="1.1"
   id="svg59"
   sodipodi:docname="背面.svg"
   inkscape:version="1.3 (0e150ed, 2023-07-21)"
   xmlns:inkscape="http://www.inkscape.org/namespaces/inkscape"
   xmlns:sodipodi="http://sodipodi.sourceforge.net/DTD/sodipodi-0.dtd"
   xmlns="http://www.w3.org/2000/svg"
   xmlns:svg="http://www.w3.org/2000/svg">
  <defs
     id="defs59" />
  <sodipodi:namedview
     id="namedview59"
     pagecolor="#ffffff"
     bordercolor="#000000"
     borderopacity="0.25"
     inkscape:showpageshadow="2"
     inkscape:pageopacity="0.0"
     inkscape:pagecheckerboard="0"
     inkscape:deskcolor="#d1d1d1"
     inkscape:zoom="2.109486"
     inkscape:cx="102.63164"
     inkscape:cy="156.19919"
     inkscape:window-width="1440"
     inkscape:window-height="772"
     inkscape:window-x="0"
     inkscape:window-y="25"
     inkscape:window-maximized="0"
     inkscape:current-layer="svg59" />
  <path
     d="m 156.729,131.557 c 0.261,-0.222 0.373,-0.742 0.156,-1.331 -0.218,-0.59 -1.299,-2.483 -2.17,-3.67 -0.872,-1.187 -2.495,-3.232 -3.198,-4.128 -0.705,-0.895 -2.155,-3.135 -2.155,-3.135 -0.568,-0.853 0.023,-0.738 1.072,-0.499 1.049,0.239 3.319,0.523 4.403,0.224 1.084,-0.299 1.341,-0.861 1.311,-1.267 -0.028,-0.356 -0.379,-1.048 -1.629,-1.007 -1.25,0.041 -3.417,-0.199 -5.424,-1.016 -2.007,-0.818 -4.806,-0.727 -5.971,-0.493 -1.342,0.269 -1.933,-0.309 -1.933,-0.309 -1.926,-1.716 -8.706,-8.235 -11.889,-16.8127 -3.384,-9.121 -7.488,-12.0252 -9.252,-13.4998 -1.764,-1.4746 -1.589,-3.6747 -1.589,-3.6747 C 117.749,70.136 113.534,65.4265 112.989,64.3489 112.024,62.4417 112,59.6568 112,59.6568 c -0.288,-8.9659 -2.01,-11.9569 -8.631,-14.2326 -4.6654,-1.6031 -5.8918,-1.199 -8.1839,-2.6195 -6.2453,-3.8707 -8.6453,-3.2686 -8.9099,-4.5136 -0.2646,-1.2449 0.0112,-5.484 0.0112,-5.484 0,0 1.6519,-2.741 1.9877,-5.3442 0,0 2.0866,0.249 2.6006,-3.3257 0.5129,-3.5748 1.4697,-6.7035 -0.7115,-5.729 0,0 1.3608,-8.2872 -1.5094,-12.77834 C 85.8742,1.27959 83.4243,0.126451 78.5001,0.00195312 H 78.4625 C 73.5383,0.126451 71.1261,1.27959 68.3455,5.62986 65.4753,10.121 66.8361,18.4082 66.8361,18.4082 c -2.1812,-0.9745 -1.2244,2.1542 -0.7115,5.729 0.513,3.5747 2.6005,3.3257 2.6005,3.3257 0.3359,2.6032 1.9878,4.9044 1.9878,4.9044 0,0 0.2758,4.6778 0.0112,5.9228 -0.2646,1.245 -2.6646,0.6429 -8.9099,4.5136 -2.2921,1.4205 -3.5185,1.0164 -8.1842,2.6195 -6.6208,2.2757 -8.3429,5.2667 -8.631,14.2326 0,0 -0.0234,2.7848 -0.9883,4.6921 -0.5455,1.0776 -4.7602,5.7871 -5.4727,16.5898 0,0 0.175,2.2012 -1.5888,3.6748 -1.7639,1.4745 -5.8677,4.3788 -9.2519,13.4998 -3.1827,8.5777 -9.9623,15.0967 -11.889,16.8127 0,0 -0.5903,0.578 -1.9318,0.309 -1.1643,-0.234 -3.96433,-0.325 -5.97144,0.493 -2.00712,0.818 -4.17403,1.057 -5.4239,1.016 -1.24987,-0.041 -1.601011,0.652 -1.628492,1.007 -0.031552,0.405 0.226972,0.968 1.310932,1.267 1.08397,0.299 3.35368,0.015 4.40304,-0.224 1.04936,-0.239 1.63969,-0.354 1.07175,0.499 0,0 -1.4514,2.24 -2.1547,3.135 -0.70432,0.895 -2.32671,2.941 -3.19795,4.128 -0.87125,1.187 -1.952153,3.081 -2.169964,3.67 -0.21781,0.589 -0.10686731,1.109 0.154709,1.331 0.286004,0.243 0.665636,0.324 1.007615,0.177 0,0 -1.030005,1.261 -0.331789,1.871 0.698219,0.611 1.581659,-0.157 1.809649,-0.344 0,0 0.07126,0.429 0.2626,0.637 0.27074,0.294 0.94656,0.497 1.51348,0.09 0.55776,-0.401 2.14757,-1.598 2.14757,-1.598 0,0 -0.06005,0.364 0.2229,0.649 0.28397,0.285 1.02189,0.228 1.5369,-0.02 0.51501,-0.248 3.53689,-2.602 3.92359,-2.947 0.3878,-0.344 1.5634,-1.418 2.2565,-1.846 0.6932,-0.427 2.6728,-2.016 3.54,-3.42 0.8671,-1.404 1.0208,-2.584 2.3806,-3.841 1.3598,-1.258 14.9088,-13.159 17.3037,-15.004 2.3949,-1.844 8.3532,-8.5202 10.1109,-13.7644 1.7578,-5.2442 1.8301,-6.4627 3.2295,-8.2138 1.1003,-1.3766 2.4764,-3.5757 3.4586,-5.9402 0,0 1.1572,2.9737 3.2111,5.7953 0,0 1.5614,2.3553 1.596,5.483 0.0335,3.0471 1.1989,11.0881 0.8977,15.2931 -0.2311,3.22 -1.0799,6.636 -2.0071,10.634 -0.8804,3.797 -4.5201,26.33 -4.112,39.819 0.4855,16.057 4.5649,22.312 4.6667,25.312 0.1017,3 0.4508,5.453 -0.1069,7.843 -0.5578,2.39 -2.7389,7.119 -0.0509,18.459 2.688,11.34 3.146,28.726 2.9547,31.579 -0.0662,0.994 -0.229,1.492 -0.229,1.492 -0.3186,0.858 -0.4652,1.999 -0.3695,3.021 0.112,1.208 -0.5038,1.647 -1.1766,2.579 -0.6727,0.934 -1.4564,3.788 -2.5211,5.325 -1.0646,1.537 -2.802,2.086 -3.5297,2.36 -0.7288,0.275 -0.6728,2.141 0,2.471 0.6728,0.33 2.5211,0.494 6.4997,0.494 3.9786,0 8.1251,0 8.7969,-0.658 0.6728,-0.659 1.2326,-2.416 0.6168,-5.38 -0.6168,-2.965 -1.3445,-6.038 -1.1766,-6.753 0.1679,-0.713 0.5293,-2.276 0.3359,-4.337 -0.1364,-1.453 -0.0641,-4.07 -0.0641,-4.07 -0.1079,-2.612 -0.0347,-6.223 0.7765,-9.719 0,0 4.9618,-15.526 4.6575,-23.56 -0.3043,-8.034 -2.7389,-12.306 -1.3191,-16.781 1.4199,-4.474 3.0219,-19.291 2.8194,-29.36 -0.2026,-10.068 2.3328,-14.522 2.232,-22.353 0,0 -0.0763,-0.458 0.456,-0.458 0.5323,0 0.457,0.458 0.457,0.458 -0.1018,7.831 2.4346,12.285 2.231,22.353 -0.2025,10.069 1.3995,24.886 2.8194,29.36 1.4198,4.475 -1.0148,8.747 -1.3191,16.781 -0.3043,8.034 4.6575,23.56 4.6575,23.56 0.6656,2.871 0.8335,5.816 0.8122,8.226 -0.0102,0.955 -0.055,4.322 -0.171,5.564 -0.1934,2.06 0.1679,3.623 0.3358,4.337 0.168,0.714 -0.5607,3.788 -1.1765,6.753 -0.6158,2.964 -0.056,4.721 0.6168,5.38 0.6727,0.658 4.8183,0.658 8.7969,0.658 3.9789,0 5.8279,-0.164 6.4999,-0.494 0.673,-0.33 0.729,-2.196 0,-2.47 -0.729,-0.275 -2.465,-0.824 -3.53,-2.361 -1.0646,-1.537 -1.8493,-4.392 -2.5211,-5.325 -0.6727,-0.933 -1.2885,-1.372 -1.1766,-2.579 0.0947,-1.022 -0.0508,-2.162 -0.3694,-3.021 0,0 -0.1619,-0.498 -0.229,-1.492 -0.0519,-0.771 -0.055,-2.614 0.0193,-5.107 h 0.0102 c 0.1974,-6.439 0.9801,-17.967 2.9964,-26.472 2.6882,-11.339 0.5069,-16.069 -0.0509,-18.459 -0.5577,-2.39 -0.2086,-4.843 -0.1069,-7.843 0.1018,-3 4.181,-9.255 4.667,-25.312 0.408,-13.489 -3.2319,-36.023 -4.1123,-39.819 -0.9272,-3.998 -1.776,-7.413 -2.0071,-10.634 -0.3012,-4.205 0.8642,-12.2459 0.8977,-15.2931 0.0347,-3.1277 1.596,-5.483 1.596,-5.483 2.0537,-2.8226 3.2107,-5.7953 3.2107,-5.7953 0.984,2.3645 2.36,4.5636 3.46,5.9402 1.399,1.7512 1.471,2.9686 3.229,8.2138 1.758,5.2442 7.716,11.9204 10.111,13.7644 2.396,1.844 15.945,13.746 17.305,15.004 1.36,1.258 1.513,2.437 2.381,3.841 0.867,1.404 2.848,2.994 3.54,3.42 0.693,0.428 1.868,1.502 2.256,1.847 0.388,0.344 3.409,2.698 3.924,2.946 0.515,0.248 1.253,0.305 1.537,0.02 0.284,-0.285 0.223,-0.649 0.223,-0.649 0,0 1.589,1.197 2.147,1.598 0.567,0.407 1.243,0.204 1.514,-0.09 0.191,-0.208 0.262,-0.637 0.262,-0.637 0.228,0.187 1.112,0.956 1.81,0.344 0.698,-0.61 -0.332,-1.871 -0.332,-1.871 0.343,0.147 0.722,0.066 1.008,-0.177 z"
     fill="#c2c2c2"
     id="path1" />
  <path
     d="m 13.9597,116.777 c 0,0 -1.8606,-0.618 -3.8992,1.765 -1.6621,1.943 -3.38423,4.265 -3.43512,4.749 -0.07837,0.729 0.31552,2.004 2.35725,2.68 2.04167,0.675 3.42287,2.236 6.03557,0.07 2.6117,-2.166 3.199,-3.953 3.2092,-5.311 0.0101,-1.357 -2.3379,-3.48 -4.2667,-3.953 z"
     fill="#f2f2f2"
     id="path2" />
  <path
     d="m 11.8061,116.094 c 0,0 -2.32165,0.917 -3.02903,1.33 -1.0402,0.608 -6.01422,1.494 -6.73483,0.756 -0.21985,-0.224 -0.229,-0.427 -0.172,-0.549 0.11603,-0.249 0.66462,-0.314 1.03103,-0.308 0.54555,0.009 3.26512,-0.174 4.44578,-0.604 1.43002,-0.521 3.38015,-0.938 4.45905,-0.625 z"
     fill="#f2f2f2"
     id="path3" />
  <path
     d="m 4.94721,124.537 c 0,0 -2.16894,2.543 -2.744,3.469 -0.57506,0.926 -1.728244,2.516 -1.292623,3.001 0.334863,0.373 1.480913,-1.196 2.378613,-2.279 0.54453,-0.657 2.02646,-2.364 2.29109,-2.79 0.29516,-0.476 0.44173,-0.871 -0.63206,-1.401 z"
     fill="#f2f2f2"
     id="path4" />
  <path
     d="m 6.61648,126.045 c 0,0 -2.40101,2.824 -3.18065,3.725 -0.77862,0.901 -1.94706,2.499 -2.06208,2.691 -0.11501,0.191 -0.22493,0.496 0.01222,0.701 0.21577,0.186 0.63307,0.029 1.1949,-0.467 0.56183,-0.495 4.47428,-4.87 4.74909,-5.198 0,0 0.56997,-0.597 0.22086,-0.781 -0.3888,-0.204 -0.6005,-0.333 -0.93638,-0.671 z"
     fill="#f2f2f2"
     id="path5" />
  <path
     d="m 8.63657,127.146 c 0,0 -2.91601,3.314 -3.30074,3.681 -0.38473,0.367 -1.30687,1.321 -1.46056,1.528 -0.15471,0.208 -0.53231,0.739 -0.16692,1.047 0.36437,0.308 0.95267,-0.111 1.61526,-0.692 0.71144,-0.624 2.95673,-2.836 3.51653,-3.397 0,0 1.10432,-1.076 1.28956,-1.413 0.1863,-0.336 -0.5201,0.033 -1.49313,-0.755 z"
     fill="#f2f2f2"
     id="path6" />
  <path
     d="m 11.107,128.23 c 0,0 -1.7018,1.754 -2.32164,2.334 -0.61985,0.581 -1.61017,1.46 -1.21933,1.87 0.4977,0.521 2.17403,-1.067 2.78367,-1.571 0.6087,-0.503 1.9797,-1.819 2.3115,-2.259 0.3318,-0.44 -0.1466,0.177 -1.5542,-0.375 z"
     fill="#f2f2f2"
     id="path7" />
  <path
     d="m 142.833,116.777 c 0,0 1.86,-0.618 3.899,1.765 1.662,1.943 3.384,4.265 3.435,4.749 0.078,0.729 -0.316,2.004 -2.357,2.68 -2.042,0.675 -3.423,2.236 -6.036,0.07 -2.612,-2.166 -3.198,-3.953 -3.209,-5.311 -0.01,-1.357 2.338,-3.48 4.267,-3.953 z"
     fill="#f2f2f2"
     id="path21" />
  <path
     d="m 144.985,116.094 c 0,0 2.322,0.917 3.029,1.33 1.041,0.608 6.015,1.494 6.735,0.756 0.22,-0.224 0.229,-0.427 0.172,-0.549 -0.116,-0.249 -0.664,-0.314 -1.031,-0.308 -0.545,0.009 -3.265,-0.174 -4.446,-0.604 -1.43,-0.521 -3.38,-0.938 -4.459,-0.625 z"
     fill="#f2f2f2"
     id="path22" />
  <path
     d="m 151.844,124.537 c 0,0 2.169,2.543 2.744,3.469 0.576,0.926 1.729,2.516 1.293,3.001 -0.335,0.373 -1.481,-1.196 -2.379,-2.279 -0.544,-0.657 -2.026,-2.364 -2.291,-2.79 -0.295,-0.476 -0.441,-0.871 0.632,-1.401 z"
     fill="#f2f2f2"
     id="path23" />
  <path
     d="m 150.176,126.045 c 0,0 2.401,2.824 3.18,3.725 0.778,0.901 1.947,2.499 2.062,2.691 0.115,0.191 0.225,0.496 -0.013,0.701 -0.215,0.186 -0.633,0.029 -1.194,-0.467 -0.561,-0.495 -4.475,-4.87 -4.75,-5.198 0,0 -0.569,-0.597 -0.22,-0.781 0.388,-0.204 0.6,-0.333 0.936,-0.671 z"
     fill="#f2f2f2"
     id="path24" />
  <path
     d="m 148.155,127.146 c 0,0 2.916,3.314 3.301,3.681 0.384,0.367 1.307,1.321 1.46,1.528 0.155,0.208 0.533,0.739 0.167,1.047 -0.364,0.308 -0.953,-0.111 -1.615,-0.692 -0.712,-0.624 -2.957,-2.836 -3.517,-3.397 0,0 -1.104,-1.076 -1.29,-1.413 -0.186,-0.336 0.52,0.033 1.493,-0.755 z"
     fill="#f2f2f2"
     id="path25" />
  <path
     d="m 145.684,128.23 c 0,0 1.702,1.754 2.322,2.334 0.62,0.581 1.61,1.46 1.219,1.87 -0.497,0.521 -2.174,-1.067 -2.783,-1.571 -0.609,-0.503 -1.98,-1.819 -2.312,-2.259 -0.332,-0.44 0.147,0.177 1.554,-0.375 z"
     fill="#f2f2f2"
     id="path26" />
  <g
     id="back">
    <path
       d="m 72.1937,68.3395 c 0.8651,2.2624 2.3491,5.1309 4.7257,6.9923 v 2.641 c 0,9.4526 -11.0921,24.3802 -11.0921,24.3802 0,0 1.5949,-10.7569 -5.4768,-17.4992 -3.4555,-3.2951 -4.7806,-8.7832 -4.7806,-8.7832 -2.571,-6.9157 -2.5425,-15.5275 -2.5425,-15.5275 0,0 8.1546,2.7104 13.8533,3.0512 3.829,0.2286 5.314,4.7452 5.314,4.7452 -0.0203,-0.0531 -0.0397,-0.1051 -0.059,-0.1571 l 0.059,0.1571 z"
       fill="#f2f2f2"
       id="path10" />
    <path
       d="m 77.0833,85.2286 c 0,0 -1.0484,7.776 -10.1822,18.2204 0,0 3.9868,9.946 10.0183,15.555 0,0 0.5333,-30.5292 0.1639,-33.7754 z"
       fill="#f2f2f2"
       id="path12" />
    <path
       d="m 84.5987,68.3395 c -0.8651,2.2624 -2.3491,5.1309 -4.7257,6.9923 v 2.641 c 0,9.4526 11.0921,24.3802 11.0921,24.3802 0,0 -1.5949,-10.7569 5.4768,-17.4992 3.4555,-3.2951 4.7811,-8.7832 4.7811,-8.7832 2.57,-6.9157 2.542,-15.5275 2.542,-15.5275 0,0 -8.1546,2.7104 -13.8533,3.0512 -3.829,0.2286 -5.314,4.7452 -5.314,4.7452 0.0204,-0.0531 0.0397,-0.1051 0.059,-0.1571 l -0.059,0.1571 z"
       fill="#f2f2f2"
       id="path29" />
    <path
       d="m 79.7095,85.2286 c 0,0 1.0483,7.776 10.1821,18.2204 0,0 -3.9868,9.946 -10.0183,15.555 0,0 -0.5333,-30.5292 -0.1638,-33.7754 z"
       fill="#f2f2f2"
       id="path31" />
  </g>
  <path
     d="m 63.1923,106.542 c -0.6748,0.874 -1.5114,1.88 -2.0651,2.73 0,0 1.3506,-4.847 -0.6382,-22.0883 0,0 2.7898,3.3268 4.0122,10.7027 0,0 0.4438,6.3876 -1.3079,8.6556 z"
     fill="#f2f2f2"
     id="path13" />
  <path
     d="m 93.2676,103.812 c 0.6748,0.874 1.5114,1.88 2.0661,2.73 0,0 -1.0178,-2.117 0.971,-19.3583 0,0 -2.7898,3.3268 -4.0122,10.7027 0,0 -0.7766,3.6576 0.9761,5.9256 z"
     fill="#f2f2f2"
     id="path32" />
  <g
     id="arms">
    <path
       d="m 51.6493,60.545 c 0,0 -6.1354,4.1187 -5.5115,10.6875 0.6239,6.5688 2.5394,9.5955 0.4346,13.1375 0,0 5.4331,-0.9347 6.4549,-6.0146 1.0219,-5.0799 -1.2223,-9.417 -1.378,-17.8104 z"
       fill="#f2f2f2"
       id="path14" />
    <path
       d="m 45.7216,64.4865 c 0,0 -5.659,6.2871 -6.0112,16.9602 0,0 4.3471,-7.8546 6.0112,-16.9602 z"
       fill="#f2f2f2"
       id="path15" />
    <path
       d="m 45.0977,72.4552 c 0,0 1.2305,7.7066 0.4509,10.2088 -0.7797,2.5022 -2.5303,3.588 -3.7781,3.4798 -1.2478,-0.1081 -1.196,-3.2359 0.5201,-6.4688 1.716,-3.2318 2.5302,-5.1789 2.8081,-7.2198 z"
       fill="#f2f2f2"
       id="path16" />
    <path
       d="m 39.3428,84.3671 c 0,0 -5.0951,4.1013 -6.9852,7.5597 -1.6448,3.0114 -4.7664,10.9992 -8.0244,15.1532 -0.8102,1.034 -3.4147,4.188 -3.4147,4.188 0,0 7.1032,-6.213 10.2778,-10.357 3.2071,-4.1859 5.8931,-6.0126 8.1465,-16.5429 z"
       fill="#f2f2f2"
       id="path17" />
    <path
       d="m 47.1007,86.3167 c 0.2361,-0.9399 -6.5516,1.3031 -7.487,3.7533 -0.9364,2.4501 -3.1827,7.9199 -9.0229,13.324 0,0 3.6397,-2.007 5.3557,-2.71 1.7161,-0.7042 8.5791,-4.132 11.1552,-14.3663 z"
       fill="#f2f2f2"
       id="path18" />
    <path
       d="m 46.5715,90.5177 c 0,0 -2.6189,7.8719 -11.198,12.1983 -8.1037,4.087 -17.5744,13.989 -17.5744,13.989 0,0 10.6137,-7.736 16.4304,-10.652 6.1354,-3.075 11.0483,-8.6542 12.342,-15.5353 z"
       fill="#f2f2f2"
       id="path19" />
    <path
       d="m 31.5783,109.285 c 0,0 -8.1628,5.325 -10.5557,7.064 -2.3918,1.739 -1.3414,2.085 -0.631,2.108 0.7114,0.025 2.0091,-0.979 3.6468,-2.472 1.8901,-1.724 7.5399,-6.7 7.5399,-6.7 z"
       fill="#f2f2f2"
       id="path20" />
    <path
       d="m 105.143,60.545 c 0,0 6.136,4.1187 5.512,10.6875 -0.624,6.5688 -2.54,9.5955 -0.435,13.1375 0,0 -5.433,-0.9347 -6.455,-6.0146 -1.022,-5.0799 1.222,-9.417 1.378,-17.8104 z"
       fill="#f2f2f2"
       id="path33" />
    <path
       d="m 111.071,64.4865 c 0,0 5.659,6.2871 6.011,16.9602 0,0 -4.347,-7.8546 -6.011,-16.9602 z"
       fill="#f2f2f2"
       id="path34" />
    <path
       d="m 111.695,72.4552 c 0,0 -1.231,7.7066 -0.451,10.2088 0.78,2.5022 2.53,3.588 3.778,3.4798 1.248,-0.1081 1.196,-3.2359 -0.52,-6.4688 -1.716,-3.2318 -2.53,-5.1789 -2.808,-7.2198 z"
       fill="#f2f2f2"
       id="path35" />
    <path
       d="m 117.449,84.3671 c 0,0 5.095,4.1013 6.985,7.5597 1.645,3.0114 4.766,10.9992 8.024,15.1532 0.811,1.034 3.415,4.188 3.415,4.188 0,0 -7.103,-6.213 -10.278,-10.357 -3.207,-4.1859 -5.893,-6.0126 -8.146,-16.5429 z"
       fill="#f2f2f2"
       id="path36" />
    <path
       d="m 109.691,86.3167 c -0.236,-0.9399 6.551,1.3031 7.487,3.7533 0.936,2.4501 3.182,7.9199 9.023,13.324 0,0 -3.64,-2.007 -5.356,-2.71 -1.716,-0.7042 -8.579,-4.132 -11.155,-14.3663 z"
       fill="#f2f2f2"
       id="path37" />
    <path
       d="m 110.22,90.5177 c 0,0 2.619,7.8719 11.198,12.1983 8.104,4.087 17.575,13.989 17.575,13.989 0,0 -10.614,-7.736 -16.431,-10.652 -6.135,-3.075 -11.048,-8.6542 -12.342,-15.5353 z"
       fill="#f2f2f2"
       id="path38" />
    <path
       d="m 125.213,109.285 c 0,0 8.163,5.325 10.556,7.064 2.392,1.739 1.342,2.085 0.631,2.108 -0.711,0.025 -2.009,-0.979 -3.647,-2.472 -1.89,-1.724 -7.54,-6.7 -7.54,-6.7 z"
       fill="#f2f2f2"
       id="path39" />
  </g>
  <g
     id="shoulders">
    <path
       d="m 46.6224,61.4284 c 0,0 -0.5893,-7.9934 2.2534,-11.2609 2.8428,-3.2666 5.3211,-3.3023 9.8962,-4.2748 0,0 2.4783,11.1568 -12.1496,15.5357 z"
       fill="#f2f2f2"
       id="path8" />
    <path
       d="m 59.854,45.5629 c 0,0 4.3084,-3.3186 10.2015,-4.9177 0,0 6.4498,-1.1286 6.4671,-10.3905 0,0 -0.0101,-0.8592 0.5191,-0.8561 0.5741,0.004 0.4611,0.4398 0.5018,1.0113 0.0366,0.5245 -0.399,42.5578 -0.399,42.5578 -2.7562,-2.4849 -5.373,-12.112 -5.945,-14.5622 0,0 -2.9852,-10.0965 -11.3455,-12.8426 z"
       fill="#f2f2f2"
       id="path9" />
    <path
       d="m 110.169,61.4284 c 0,0 0.589,-7.9934 -2.253,-11.2609 -2.843,-3.2666 -5.321,-3.3023 -9.8964,-4.2748 0,0 -2.4784,11.1568 12.1494,15.5357 z"
       fill="#f2f2f2"
       id="path27" />
    <path
       d="m 96.9378,45.5629 c 0,0 -4.3084,-3.3186 -10.2015,-4.9177 0,0 -6.4498,-1.1286 -6.4671,-10.3905 0,0 0.0101,-0.8592 -0.5191,-0.8561 -0.5741,0.004 -0.4611,0.4398 -0.5018,1.0113 -0.0366,0.5245 0.2535,42.6445 0.2535,42.6445 2.7562,-2.4848 5.5195,-12.1987 6.0915,-14.6489 0,0 2.9853,-10.0965 11.3455,-12.8426 z"
       fill="#f2f2f2"
       id="path28" />
    <path
       d="m 96.0228,47.5255 c -8.2677,5.5779 -9.3038,14.4764 -9.3038,14.4764 9.775,0.0378 15.269,-2.7542 15.269,-2.7542 0,0 -6.3581,-3.5635 -5.9673,-11.6957 z"
       fill="#f2f2f2"
       id="path30" />
    <path
       d="m 60.7691,47.5255 c 8.2676,5.5779 9.3038,14.4764 9.3038,14.4764 -9.7751,0.0378 -15.2692,-2.7542 -15.2692,-2.7542 0,0 6.3582,-3.5635 5.9674,-11.6957 z"
       fill="#f2f2f2"
       id="path11"
       inkscape:label="path11" />
  </g>
  <g
     id="glutes">
    <path
       d="m 59.6564,140.252 c 0,0 2.688,-3.34 9.376,-3.598 7.6793,-0.295 9.7231,-8.862 7.0901,-14.41 -2.1486,-4.526 -5.0636,-4.445 -10.4316,-15.705 0,0 -10.0844,9.941 -6.0335,33.713 z"
       fill="#f2f2f2"
       id="path42" />
    <path
       d="m 97.8882,139.522 c 0,0 -3.4402,-2.61 -10.1282,-2.868 -7.6794,-0.295 -9.7231,-8.862 -7.0901,-14.41 2.1486,-4.526 5.0636,-4.445 10.4315,-15.705 0,0 10.8366,9.21 6.7857,32.983 z"
       fill="#f2f2f2"
       id="path43" />
  </g>
  <g
     id="hamstrings">
    <path
       d="m 64.3699,139.067 c 0,0 -0.8315,11.175 -0.7623,13.824 0.0692,2.649 0.6514,19.817 -2.6077,26.074 0,0 -9.3159,-34.13 3.37,-39.898 z"
       fill="#f2f2f2"
       id="path46" />
    <path
       d="m 91.2275,138.791 c 0,0 -10.4335,26.414 -4.7491,45.599 0,0 4.1496,-5.7 4.4366,-12.233 1.1786,-26.761 0.7237,-26.744 0.3125,-33.365 z"
       fill="#f2f2f2"
       id="path53" />
    <path
       d="m 92.6484,139.067 c 0,0 0.8316,11.175 0.7624,13.824 -0.0692,2.649 -0.6514,19.817 2.6076,26.074 0,0 9.3156,-34.13 -3.37,-39.898 z"
       fill="#f2f2f2"
       id="path54" />
    <path
       d="m 83.0219,170.235 c -0.7623,-2.989 0,-15.432 -0.0692,-18.698 -0.0692,-3.267 -1.6641,-15.988 -1.6641,-15.988 0,0 3.5541,3.295 8.3378,3.156 0,0 -6.1882,11.547 -6.6045,31.496 z"
       fill="#f2f2f2"
       id="path52" />
    <path
       d="m 65.7917,138.791 c 0,0 10.4335,26.414 4.7491,45.599 0,0 -4.1496,-5.7 -4.4366,-12.233 -1.1786,-26.761 -0.7237,-26.744 -0.3125,-33.365 z"
       fill="#f2f2f2"
       id="path45" />
    <path
       d="m 73.9961,170.235 c 0.7624,-2.989 1e-4,-15.432 0.0693,-18.698 0.0692,-3.267 1.6641,-15.988 1.6641,-15.988 0,0 -3.5542,3.295 -8.3379,3.156 0,0 6.1883,11.547 6.6035,31.496 v 0.034 z"
       fill="#f2f2f2"
       id="path44"
       inkscape:label="path44" />
  </g>
  <g
     id="quads">
    <path
       d="m 57.2299,132.95 c 0,0 1.3547,6.325 0.4,9.732 -0.9547,3.406 -1.8565,15.362 -1.2326,18.906 0,0 -2.4957,-14.181 0.8315,-28.639 z"
       fill="#f2f2f2"
       id="path47" />
    <path
       d="m 99.7893,132.95 c 0,0 -1.3547,6.325 -0.4,9.732 0.9547,3.406 1.8567,15.362 1.2327,18.906 0,0 2.496,-14.181 -0.8317,-28.639 z"
       fill="#f2f2f2"
       id="path55" />
  </g>
  <g
     id="calves">
    <path
       d="m 71.7368,193.918 c 0.6921,2.844 1.2397,5.551 1.1613,7.779 -0.3074,8.772 -1.4758,12.346 -3.4666,12.512 -1.9909,0.165 -3.2051,-1.354 -2.9568,-10.702 0.0713,-2.692 0.0245,-5.34 -0.0926,-7.921 0,0 -0.3562,-9.225 0.2768,-15.594 0,0 2.2148,4.718 3.4626,6.073 0,0 1.0799,5.649 1.6163,7.853 z"
       fill="#f2f2f2"
       id="path48" />
    <path
       d="m 64.8553,207.743 c -0.117,5.058 -2.7644,2.138 -3.8555,0.834 -1.0921,-1.303 -2.5913,-6.29 -2.176,-12.338 0.1649,-2.394 0.9272,-5.349 1.7872,-8.045 0,0 1.3832,-3.284 0.8977,-7.489 0,0 1.6998,-1.877 1.9624,-5.394 0,0 1.8778,11.093 1.3842,32.433 z"
       fill="#f2f2f2"
       id="path49" />
    <path
       d="m 71.0436,214.219 c 0,0 -0.7797,0.788 -1.7161,1.257 -0.9363,0.47 -2.5607,1.406 -2.6127,19.965 0,0 1.2092,-15.012 4.3288,-21.222 z"
       fill="#f2f2f2"
       id="path50" />
    <path
       d="M 64.0756,242.271 C 63.296,222.46 60.384,209.584 60.384,209.584 c 0,0 1.5074,1.512 1.8463,2.606 0.338,1.095 2.7084,6.256 2.1059,29.507 l -0.2596,0.574 z"
       fill="#f2f2f2"
       id="path51" />
    <path
       d="m 85.2824,193.918 c -0.6921,2.844 -1.2387,5.551 -1.1613,7.779 0.3074,8.772 1.4758,12.346 3.4666,12.512 1.9909,0.165 3.2051,-1.354 2.9568,-10.702 -0.0713,-2.692 -0.0245,-5.34 0.0926,-7.921 0,0 0.3562,-9.225 -0.2769,-15.594 0,0 -2.2147,4.718 -3.4625,6.073 0,0 -1.0799,5.649 -1.6163,7.853 z"
       fill="#f2f2f2"
       id="path56" />
    <path
       d="m 92.1628,207.743 c 0.117,5.058 2.7643,2.138 3.8554,0.834 1.0921,-1.303 2.5914,-6.29 2.1761,-12.338 -0.1649,-2.394 -0.9272,-5.349 -1.7873,-8.045 0,0 -1.3832,-3.284 -0.8977,-7.489 0,0 -1.6997,-1.877 -1.9623,-5.394 0,0 -1.8779,11.093 -1.3842,32.433 z"
       fill="#f2f2f2"
       id="path57" />
    <path
       d="m 85.9756,214.219 c 0,0 0.7796,0.788 1.716,1.257 0.9364,0.47 2.5608,1.406 2.6127,19.965 0,0 -1.2091,-15.012 -4.3287,-21.222 z"
       fill="#f2f2f2"
       id="path58" />
    <path
       d="m 92.9426,242.271 c 0.7797,-19.811 3.6916,-32.687 3.6916,-32.687 0,0 -1.5074,1.512 -1.8463,2.606 -0.3379,1.095 -2.7084,6.256 -2.1058,29.507 l 0.2595,0.574 z"
       fill="#f2f2f2"
       id="path59" />
  </g>
  <path
     d="m 85.0131,37.8546 c 0,0 -3.5878,-1.5235 -3.5878,-8.2842 0,0 3.1725,1.542 3.4147,3.6615 0.2423,2.1195 0.0041,3.0971 0.1731,4.6227 z"
     fill="#f2f2f2"
     id="path40"
     inkscape:label="path40" />
  <path
     d="m 71.8057,37.8546 c 0,0 3.5877,-1.5235 3.5877,-8.2842 0,0 -3.1725,1.542 -3.4147,3.6615 -0.2422,2.1195 -0.0041,3.0971 -0.173,4.6227 z"
     fill="#f2f2f2"
     id="path41" />
</svg>
