<svg
   width="157"
   height="256"
   viewBox="0 0 157 256"
   fill="none"
   version="1.1"
   id="svg78"
   sodipodi:docname="正面.svg"
   inkscape:export-filename="../正面.png"
   inkscape:export-xdpi="96"
   inkscape:export-ydpi="96"
   xmlns:inkscape="http://www.inkscape.org/namespaces/inkscape"
   xmlns:sodipodi="http://sodipodi.sourceforge.net/DTD/sodipodi-0.dtd"
   xmlns="http://www.w3.org/2000/svg"
   xmlns:svg="http://www.w3.org/2000/svg">
  <defs
     id="defs78" />
  <sodipodi:namedview
     id="namedview78"
     pagecolor="#ffffff"
     bordercolor="#000000"
     borderopacity="0.25"
     inkscape:showpageshadow="2"
     inkscape:pageopacity="0.0"
     inkscape:pagecheckerboard="0"
     inkscape:deskcolor="#d1d1d1" />
  <path
     d="m 78.4964,0 c 4.9243,0.124498 7.3752,1.27763 10.1549,5.62791 2.8703,4.49109 1.5095,12.77839 1.5095,12.77839 2.1812,-0.9746 1.2244,2.1542 0.7115,5.7289 -0.513,3.5747 -2.5996,3.3257 -2.5996,3.3257 -0.3359,2.6033 -1.9878,5.3443 -1.9878,5.3443 0,0 -0.2758,4.239 -0.0112,5.484 0.2646,1.245 2.6647,0.6429 8.9101,4.5136 2.2922,1.4205 3.5186,1.0163 8.1842,2.6195 6.621,2.2757 8.343,5.2667 8.631,14.2326 0,0 0.024,2.7848 0.989,4.6921 0.545,1.0776 4.76,5.7871 5.473,16.5898 0,0 -0.175,2.2012 1.588,3.6748 1.764,1.4745 5.868,4.3788 9.253,13.4998 3.182,8.5786 9.962,15.0966 11.889,16.8126 0,0 0.59,0.578 1.932,0.309 1.164,-0.234 3.964,-0.325 5.971,0.493 2.007,0.818 4.174,1.057 5.424,1.016 1.25,-0.041 1.601,0.652 1.629,1.008 0.031,0.406 -0.227,0.968 -1.311,1.267 -1.084,0.299 -3.354,0.015 -4.403,-0.224 -1.05,-0.238 -1.64,-0.354 -1.072,0.499 0,0 1.451,2.24 2.155,3.135 0.704,0.895 2.326,2.941 3.198,4.128 0.871,1.187 1.951,3.081 2.17,3.67 0.219,0.59 0.107,1.109 -0.155,1.331 -0.286,0.243 -0.666,0.324 -1.008,0.177 0,0 1.03,1.261 0.332,1.872 -0.698,0.61 -1.582,-0.158 -1.81,-0.344 0,0 -0.071,0.428 -0.262,0.636 -0.271,0.294 -0.947,0.498 -1.514,0.09 -0.557,-0.401 -2.147,-1.598 -2.147,-1.598 0,0 0.06,0.364 -0.223,0.649 -0.284,0.285 -1.022,0.228 -1.537,-0.02 -0.515,-0.248 -3.537,-2.601 -3.924,-2.946 -0.388,-0.345 -1.563,-1.419 -2.256,-1.846 -0.693,-0.428 -2.673,-2.017 -3.54,-3.422 -0.868,-1.404 -1.021,-2.584 -2.381,-3.841 -1.36,-1.258 -14.909,-13.159 -17.305,-15.004 -2.395,-1.844 -8.354,-8.5201 -10.111,-13.7643 -1.758,-5.2442 -1.83,-6.4627 -3.229,-8.2138 -1.1,-1.3766 -2.476,-3.5757 -3.46,-5.9402 0,0 -1.157,2.9737 -3.2108,5.7953 0,0 -1.5614,2.3553 -1.596,5.483 -0.0336,3.0471 -1.199,11.088 -0.8977,15.293 0.231,3.22 1.0799,6.636 2.0071,10.634 0.8805,3.797 4.5204,26.33 4.1124,39.819 -0.486,16.057 -4.5653,22.312 -4.6671,25.312 -0.1018,3 -0.4509,5.453 0.1069,7.843 0.5578,2.39 2.7392,7.119 0.0509,18.46 -2.6881,11.339 -3.1848,28.058 -3.022,30.912 0.0234,0.413 0.171,0.667 0.171,0.667 0.4499,0.827 0.8387,1.511 0.6168,3.218 -0.2707,2.081 2.3797,4.16 3.137,7.041 0.7573,2.881 4.2175,2.827 3.6775,5.761 0,0 -0.408,0.898 -1.73,1.173 -3.8397,0.8 -7.7329,0 -8.9227,0.321 -1.1899,0.32 -4.5426,0.747 -4.7584,-2.187 -0.2168,-2.934 0.6494,-6.495 0.7033,-8.608 0.0469,-1.837 -0.6096,-3.884 -0.4315,-5.797 0.0183,-0.194 0.0946,-0.573 0.0946,-0.573 0,0 1.0739,-6.967 -0.4478,-13.526 0,0 -4.9619,-15.526 -4.6576,-23.56 0.3043,-8.034 2.739,-12.306 1.3191,-16.781 -1.4199,-4.474 -3.0219,-19.291 -2.8194,-29.36 0.2026,-10.069 -2.3329,-14.522 -2.2321,-22.353 0,0 0.0763,-0.457 -0.457,-0.457 -0.5333,0 -0.456,0.457 -0.456,0.457 0.1018,7.831 -2.4346,12.285 -2.2321,22.353 0.2026,10.069 -1.3995,24.886 -2.8194,29.36 -1.4199,4.475 1.0148,8.747 1.3191,16.781 0.3044,8.034 -4.6576,23.56 -4.6576,23.56 -1.5216,6.559 -0.4478,13.526 -0.4478,13.526 0,0 0.0773,0.379 0.0946,0.573 0.1782,1.913 -0.4783,3.96 -0.4315,5.797 0.0539,2.113 0.9191,5.674 0.7033,8.608 -0.2158,2.934 -3.5695,2.507 -4.7584,2.187 -1.1898,-0.321 -5.083,0.479 -8.9223,-0.321 -1.3232,-0.275 -1.7303,-1.173 -1.7303,-1.173 -0.5405,-2.934 2.9202,-2.881 3.6774,-5.761 0.7573,-2.881 3.4067,-4.96 3.136,-7.041 -0.2219,-1.709 0.1669,-2.391 0.6168,-3.218 0,0 0.1476,-0.254 0.171,-0.667 0.1618,-2.854 -0.3339,-19.573 -3.022,-30.912 -2.6881,-11.34 -0.5069,-16.07 0.0509,-18.46 0.5578,-2.39 0.2087,-4.843 0.1069,-7.843 -0.1018,-3 -4.1813,-9.255 -4.6668,-25.312 -0.4081,-13.489 3.2317,-36.023 4.1121,-39.819 0.9272,-3.998 1.7761,-7.413 2.0071,-10.634 0.3013,-4.205 -0.8641,-12.2459 -0.8977,-15.293 -0.0346,-3.1277 -1.596,-5.483 -1.596,-5.483 -2.0539,-2.8226 -3.2112,-5.7953 -3.2112,-5.7953 -0.9832,2.3645 -2.3593,4.5636 -3.4596,5.9402 -1.3995,1.7511 -1.4708,2.9686 -3.2296,8.2138 -1.7578,5.2442 -7.7162,11.9203 -10.1111,13.7643 -2.395,1.844 -15.9454,13.746 -17.3052,15.004 -1.3599,1.258 -1.5125,2.437 -2.3807,3.841 -0.8672,1.404 -2.8479,2.994 -3.5401,3.422 -0.6931,0.427 -1.8687,1.501 -2.2565,1.846 -0.3878,0.345 -3.40872,2.698 -3.92374,2.946 -0.51502,0.248 -1.25295,0.305 -1.53693,0.02 -0.28397,-0.285 -0.2229,-0.649 -0.2229,-0.649 0,0 -1.58986,1.197 -2.14763,1.598 -0.56693,0.407 -1.24277,0.204 -1.51351,-0.09 -0.19136,-0.208 -0.2626,-0.636 -0.2626,-0.636 -0.228,0.187 -1.11148,0.955 -1.80971,0.344 -0.698233,-0.611 0.33181,-1.872 0.33181,-1.872 -0.343006,0.147 -0.72164,0.066 -1.007651,-0.177 -0.26158262,-0.222 -0.373544,-0.741 -0.15471,-1.331 0.218834,-0.59 1.298751,-2.483 2.170021,-3.67 0.87126,-1.187 2.4947,-3.232 3.19803,-4.128 0.70434,-0.895 2.15475,-3.135 2.15475,-3.135 0.56795,-0.853 -0.02341,-0.737 -1.07178,-0.499 -1.04939,0.239 -3.31915,0.523 -4.40314,0.224 -1.08399,-0.299 -1.341506,-0.86 -1.310971,-1.267 0.027482,-0.356 0.378631,-1.048 1.628531,-1.008 1.2499,0.041 3.41686,-0.199 5.42403,-1.016 2.00716,-0.819 4.8062,-0.727 5.9716,-0.493 1.3415,0.269 1.9319,-0.309 1.9319,-0.309 1.9267,-1.716 8.7065,-8.234 11.8893,-16.8126 3.3843,-9.121 7.4882,-12.0253 9.2521,-13.4998 1.7639,-1.4746 1.5888,-3.6748 1.5888,-3.6748 0.7125,-10.8027 4.9273,-15.5122 5.4729,-16.5898 0.9649,-1.9073 0.9883,-4.6921 0.9883,-4.6921 0.288,-8.9659 2.0102,-11.9569 8.6312,-14.2326 4.6657,-1.6032 5.8922,-1.199 8.1844,-2.6195 6.2444,-3.8707 8.6455,-3.2686 8.9101,-4.5136 0.2646,-1.245 -0.0112,-5.9228 -0.0112,-5.9228 0,0 -1.6519,-2.3012 -1.9878,-4.9044 0,0 -2.0866,0.249 -2.5996,-3.3258 -0.5129,-3.5747 -1.4697,-6.7034 0.7115,-5.7289 0,0 -1.3608,-8.2873 1.5094,-12.77837 C 71.1212,1.27763 73.5335,0.124498 78.4588,0 Z"
     fill="#656b80"
     id="path1" />
  <path
     d="m 13.955,116.824 c 0,0 -1.8606,-0.618 -3.8993,1.765 -1.66214,1.943 -3.38431,4.265 -3.4352,4.749 -0.07838,0.729 0.31553,2.004 2.3573,2.68 2.0418,0.675 3.423,2.236 6.0357,0.07 2.6118,-2.166 3.1991,-3.953 3.2093,-5.311 0.0101,-1.357 -2.338,-3.48 -4.2668,-3.953 z"
     fill="#434756"
     id="path8" />
  <path
     d="m 11.8012,116.141 c 0,0 -2.32169,0.917 -3.02908,1.33 -1.04023,0.608 -6.01437,1.494 -6.735,0.756 -0.21985,-0.224 -0.22901,-0.427 -0.17201,-0.549 0.11603,-0.249 0.66464,-0.314 1.03106,-0.308 0.54556,0.009 3.26521,-0.174 4.44589,-0.604 1.43006,-0.521 3.38024,-0.938 4.45914,-0.625 z"
     fill="#434756"
     id="path9" />
  <path
     d="m 4.94194,124.584 c 0,0 -2.169,2.543 -2.74407,3.469 -0.57508,0.926 -1.728283,2.516 -1.292651,3.001 0.334871,0.373 1.480951,-1.196 2.378671,-2.279 0.54454,-0.658 2.02651,-2.364 2.29114,-2.79 0.29518,-0.476 0.44174,-0.871 -0.63207,-1.401 z"
     fill="#434756"
     id="path10" />
  <path
     d="m 6.61116,126.094 c 0,0 -2.40107,2.823 -3.18073,3.724 -0.77864,0.902 -1.94711,2.5 -2.06213,2.691 -0.11399,0.192 -0.22494,0.496 0.01222,0.702 0.21578,0.186 0.63309,0.029 1.19493,-0.467 0.56083,-0.495 4.47439,-4.871 4.74921,-5.198 0,0 0.56998,-0.597 0.22087,-0.781 -0.38881,-0.204 -0.60052,-0.333 -0.93641,-0.671 z"
     fill="#434756"
     id="path11" />
  <path
     d="m 8.63157,127.194 c 0,0 -2.91609,3.314 -3.30083,3.682 -0.38474,0.367 -1.3069,1.32 -1.46059,1.528 -0.15471,0.208 -0.53233,0.739 -0.16692,1.047 0.36438,0.308 0.95269,-0.111 1.6153,-0.692 0.71146,-0.624 2.9568,-2.836 3.51661,-3.397 0,0 1.10434,-1.077 1.28956,-1.413 0.1863,-0.336 -0.52008,0.033 -1.49313,-0.756 z"
     fill="#434756"
     id="path12" />
  <path
     d="m 11.1019,128.277 c 0,0 -1.70178,1.754 -2.32164,2.334 -0.61986,0.581 -1.61021,1.459 -1.21936,1.87 0.49772,0.521 2.17409,-1.067 2.7838,-1.571 0.6086,-0.503 1.9797,-1.819 2.3115,-2.259 0.3318,-0.44 -0.1466,0.177 -1.5543,-0.375 z"
     fill="#434756"
     id="path13" />
  <path
     d="m 16.3984,116.827 c 0,0 1.8372,1.234 2.2016,2.087 0.3644,0.851 1.9756,-2.468 3.2927,-3.981 1.3171,-1.511 -0.9191,0.139 -5.4943,1.894 z"
     fill="#434756"
     id="path14" />
  <path
     d="m 61.7095,45.9059 c 7.2917,-0.5072 13.1392,0.8972 12.6313,0.0684 -2.1843,-3.565 -3.7294,-5.9431 -3.7294,-5.9431 -3.1481,0.8155 -6.5507,2.9517 -8.6597,4.4387 0,0 -2.3726,1.5851 -0.2432,1.4371 z"
     fill="#434756"
     id="path16" />
  <path
     d="m 77.6569,47.5431 c 0,0 -5.5604,-4.1574 -5.6642,-12.463 0,0 2.4814,1.3725 2.6575,1.9123 0.3318,1.0154 0.6657,5.7984 3.0067,10.5507 z"
     fill="#434756"
     id="path17" />
  <path
     d="m 78.2167,36.7153 c 1.8698,0 2.6535,-0.1388 2.5497,1.1072 -0.1038,1.246 -2.1843,7.1984 -2.1843,7.1984 h -0.172 c 0,0 -2.0794,-5.9524 -2.1842,-7.1984 -0.1039,-1.246 0.6799,-1.1072 2.5496,-1.1072 z"
     fill="#434756"
     id="path18" />
  <path
     d="m 53.3428,64 c 0,0 2.3654,14.0233 5.5899,17.8818 0,0 -1.4026,-5.7086 -0.7267,-9.2537 C 58.8818,69.083 58.2905,69.9412 53.3428,64 Z"
     fill="#434756"
     id="path23" />
  <g
     id="shoulders">
    <path
       d="m 46.561,60.9569 c 0,0 -0.5068,-6.9341 1.7293,-10.1139 2.2362,-3.1798 5.876,-4.535 9.5157,-5.4739 0,0 -7.3619,4.9177 -11.245,15.5878 z"
       fill="#434756"
       id="path2" />
    <path
       d="m 58.9246,45.8652 c 0,0 -8.6882,7.0984 -12.3626,17.595 0,0 5.9177,-4.04 9.702,-8.028 3.7263,-3.9278 4.2555,-7.1158 2.6606,-9.5659 z"
       fill="#434756"
       id="path3" />
    <path
       d="m 110.433,60.9569 c 0,0 0.506,-6.9341 -1.73,-10.1139 -2.236,-3.1798 -5.876,-4.535 -9.5155,-5.4739 0,0 7.3615,4.9177 11.2455,15.5878 z"
       fill="#434756"
       id="path29" />
    <path
       d="m 98.0684,45.8652 c 0,0 8.6886,7.0984 12.3626,17.595 0,0 -5.918,-4.04 -9.702,-8.028 -3.7262,-3.9278 -4.2555,-7.1158 -2.6606,-9.5659 z"
       fill="#434756"
       id="path30" />
  </g>
  <g
     id="biceps">
    <path
       d="m 50.8563,61.8613 c 0,0 -7.5034,3.8788 -9.1686,9.7833 -2.912,10.3221 -0.5374,16.2133 -0.7451,17.8124 0,0 4.8805,-4.9799 6.8806,-8.6363 3.3802,-6.1779 5.7375,-12.3549 3.0331,-18.9584 z"
       fill="#434756"
       id="path4" />
    <path
       d="m 53.0222,69.4668 c 0,0 -0.0133,7.5219 -6.9294,15.9418 0,0 3.486,-0.7469 6.0663,-4.9176 2.5791,-4.1707 0.8631,-11.0242 0.8631,-11.0242 z"
       fill="#434756"
       id="path5" />
    <path
       d="m 106.137,61.8613 c 0,0 7.503,3.8788 9.169,9.7833 2.912,10.3221 0.537,16.2133 0.745,17.8124 0,0 -4.881,-4.9799 -6.881,-8.6363 -3.38,-6.1779 -5.737,-12.3549 -3.033,-18.9584 z"
       fill="#434756"
       id="path31" />
    <path
       d="m 103.971,69.4668 c 0,0 0.013,7.5219 6.929,15.9418 0,0 -3.486,-0.7469 -6.066,-4.9176 -2.579,-4.1707 -0.863,-11.0242 -0.863,-11.0242 z"
       fill="#434756"
       id="path32" />
  </g>
  <g
     id="forearms">
    <path
       d="m 39.2771,85.4062 c 0,0 1.3863,5.5086 -0.8316,8.8455 -2.2188,3.3359 -6.3085,10.6703 -20.6945,21.3043 0,0 5.9146,-5.046 9.0475,-12.129 1.9471,-4.4035 3.1196,-8.6191 6.1009,-12.1642 2.9812,-3.5452 6.3787,-5.8566 6.3787,-5.8566 z"
       fill="#434756"
       id="path6" />
    <path
       d="m 21.0098,117.469 c 0,0 17.922,-12.859 22.9134,-19.9492 4.9915,-7.0903 3.6052,-11.3303 3.6052,-11.3303 0,0 -4.1599,1.946 -5.8241,4.24 -1.6641,2.294 -2.8295,6.0484 -6.794,11.3995 -4.4805,6.048 -13.9005,15.64 -13.9005,15.64 z"
       fill="#434756"
       id="path7" />
    <path
       d="m 117.715,85.4062 c 0,0 -1.386,5.5086 0.832,8.8455 2.218,3.3359 6.308,10.6703 20.694,21.3043 0,0 -5.914,-5.046 -9.047,-12.129 -1.947,-4.4035 -3.12,-8.6191 -6.101,-12.1642 -2.981,-3.5452 -6.379,-5.8566 -6.379,-5.8566 z"
       fill="#434756"
       id="path33" />
    <path
       d="m 135.984,117.469 c 0,0 -17.922,-12.859 -22.913,-19.9492 -4.992,-7.0903 -3.606,-11.3303 -3.606,-11.3303 0,0 4.16,1.946 5.824,4.24 1.665,2.294 2.83,6.0484 6.794,11.3995 4.481,6.048 13.901,15.64 13.901,15.64 z"
       fill="#434756"
       id="path34" />
  </g>
  <path
     d="m 143.038,116.824 c 0,0 1.861,-0.618 3.9,1.765 1.662,1.943 3.384,4.265 3.435,4.749 0.078,0.729 -0.316,2.004 -2.357,2.68 -2.042,0.675 -3.423,2.236 -6.036,0.07 -2.612,-2.166 -3.199,-3.953 -3.209,-5.311 -0.011,-1.357 2.338,-3.48 4.266,-3.953 z"
     fill="#434756"
     id="path35" />
  <path
     d="m 145.191,116.141 c 0,0 2.322,0.917 3.029,1.33 1.041,0.608 6.015,1.494 6.735,0.756 0.22,-0.224 0.229,-0.427 0.172,-0.549 -0.116,-0.249 -0.664,-0.314 -1.031,-0.308 -0.545,0.009 -3.265,-0.174 -4.445,-0.604 -1.431,-0.521 -3.381,-0.938 -4.46,-0.625 z"
     fill="#434756"
     id="path36" />
  <path
     d="m 152.052,124.584 c 0,0 2.169,2.543 2.744,3.469 0.575,0.926 1.728,2.516 1.292,3.001 -0.335,0.373 -1.481,-1.196 -2.378,-2.279 -0.545,-0.658 -2.027,-2.364 -2.292,-2.79 -0.295,-0.476 -0.441,-0.871 0.632,-1.401 z"
     fill="#434756"
     id="path37" />
  <path
     d="m 150.382,126.094 c 0,0 2.401,2.823 3.181,3.724 0.778,0.902 1.947,2.5 2.062,2.691 0.115,0.192 0.225,0.496 -0.012,0.702 -0.216,0.186 -0.633,0.029 -1.195,-0.467 -0.562,-0.495 -4.475,-4.871 -4.749,-5.198 0,0 -0.57,-0.597 -0.221,-0.781 0.388,-0.204 0.6,-0.333 0.936,-0.671 z"
     fill="#434756"
     id="path38" />
  <path
     d="m 148.362,127.194 c 0,0 2.916,3.314 3.301,3.682 0.385,0.367 1.307,1.32 1.46,1.528 0.155,0.208 0.533,0.739 0.167,1.047 -0.364,0.308 -0.952,-0.111 -1.615,-0.692 -0.711,-0.624 -2.957,-2.836 -3.517,-3.397 0,0 -1.104,-1.077 -1.29,-1.413 -0.186,-0.336 0.52,0.033 1.493,-0.756 z"
     fill="#434756"
     id="path39" />
  <path
     d="m 145.891,128.277 c 0,0 1.701,1.754 2.321,2.334 0.62,0.581 1.61,1.459 1.22,1.87 -0.498,0.521 -2.175,-1.067 -2.784,-1.571 -0.61,-0.504 -1.98,-1.819 -2.312,-2.259 -0.332,-0.44 0.147,0.177 1.555,-0.375 z"
     fill="#434756"
     id="path40" />
  <path
     d="m 140.594,116.827 c 0,0 -1.838,1.234 -2.202,2.087 -0.364,0.851 -1.976,-2.468 -3.294,-3.981 -1.317,-1.511 0.919,0.139 5.495,1.894 z"
     fill="#434756"
     id="path41" />
  <g
     id="pecs">
    <path
       d="m 65.1018,47.375 c 3.3141,-0.0725 7.192,0.1571 9.2226,0.4867 0,0 2.6972,0.3256 2.799,4.236 0.0845,3.2635 0.685,8.8057 -0.0967,12.0426 -0.742,3.0727 -1.0595,7.4413 -10.4684,6.0096 -9.8088,-1.4929 -13.7336,-9.4506 -13.7336,-9.4506 0,0 3.6632,-2.3461 5.8994,-5.7871 2.2361,-3.441 2.397,-7.4505 6.3777,-7.5382 z"
       fill="#434756"
       id="path15" />
    <path
       d="m 91.8913,47.375 c -3.3141,-0.0725 -7.192,0.1571 -9.2226,0.4867 0,0 -2.6972,0.3256 -2.799,4.236 -0.0845,3.2635 -0.685,8.8057 0.0967,12.0426 0.742,3.0727 0.86,7.4638 10.2679,6.0321 9.8087,-1.493 13.9327,-9.4731 13.9327,-9.4731 0,0 -3.663,-2.3461 -5.899,-5.7871 -2.2362,-3.441 -2.397,-7.4505 -6.3777,-7.5382 z"
       fill="#434756"
       id="path42" />
  </g>
  <path
     d="m 95.2841,45.9059 c -7.2917,-0.5072 -13.1392,0.8972 -12.6313,0.0684 2.1843,-3.565 3.7294,-5.9431 3.7294,-5.9431 3.1481,0.8155 6.5507,2.9517 8.6597,4.4387 0,0 2.3726,1.5851 0.2433,1.4371 z"
     fill="#434756"
     id="path43" />
  <path
     d="m 79.3364,47.5431 c 0,0 5.5604,-4.1574 5.6643,-12.463 0,0 -2.4683,1.2684 -2.6576,1.9123 -0.3013,1.0246 -0.6657,5.7984 -3.0067,10.5507 z"
     fill="#434756"
     id="path44" />
  <g
     id="abdominals">
    <path
       d="m 76.6616,77.2532 c 0,0 0.4875,-2.0491 -0.0041,-3.9503 -0.4906,-1.9011 -2.6983,-1.5991 -5.5686,-0.6551 -2.8713,0.9439 -4.1517,4.585 -4.5293,7.6617 0,0 5.5573,-4.0788 10.102,-3.0563 z"
       fill="#434756"
       id="path19" />
    <path
       d="m 73.5497,79.504 c -1.997,0.199 -3.8535,1.3491 -5.4474,2.3634 0,0 -1.6061,0.8287 -1.4341,2.8115 0.1292,1.4919 0.2117,3.39 0.2117,3.39 0,0 5.3466,-1.8665 9.8801,-1.4828 0,0 0.2351,-3.7318 0,-5.3789 -0.2351,-1.647 -1.8789,-1.8368 -3.2113,-1.7042 z"
       fill="#434756"
       id="path20" />
    <path
       d="m 67.34,91.25 c 0,0 -0.0804,-1.3226 1.1094,-1.5879 1.5868,-0.3531 5.0953,-1.0939 7.4872,-0.9531 0,0 0.8458,0.0316 0.9283,1.1643 0.1079,1.4859 0.2504,7.2332 0.2504,7.2332 0,0 -9.6542,1.3235 -9.7753,-5.8576 z"
       fill="#434756"
       id="path21" />
    <path
       d="m 68.1201,97.2031 c 0,0 2.1843,2.3339 7.9391,2.2675 0,0 1.1949,-0.0337 1.2825,1.4004 0.114,1.871 0,20.004 0,20.004 0,0 -8.1121,-1.806 -9.2216,-23.6719 z"
       fill="#434756"
       id="path22" />
    <path
       d="m 80.2282,77.2532 c 0,0 -0.4876,-2.0491 0.004,-3.9503 0.4906,-1.9011 2.6983,-1.5991 5.5686,-0.6551 2.8713,0.9439 4.1518,4.585 4.5294,7.6617 0,0 -5.5574,-4.0788 -10.102,-3.0563 z"
       fill="#434756"
       id="path45" />
    <path
       d="m 83.3396,79.504 c 1.997,0.199 3.8536,1.3491 5.4475,2.3634 0,0 1.6061,0.8287 1.4341,2.8115 -0.1303,1.4919 -0.2117,3.39 -0.2117,3.39 0,0 -5.3467,-1.8665 -9.8801,-1.4828 0,0 -0.2351,-3.7318 0,-5.3789 0.2351,-1.647 1.8789,-1.8368 3.2113,-1.7042 z"
       fill="#434756"
       id="path46" />
    <path
       d="m 89.5506,91.25 c 0,0 0.0805,-1.3226 -1.1094,-1.5879 -1.5868,-0.3531 -5.0953,-1.0939 -7.4872,-0.9531 0,0 -0.8458,0.0316 -0.9282,1.1643 -0.1079,1.4859 -0.2504,7.2332 -0.2504,7.2332 0,0 9.6541,1.3235 9.7752,-5.8576 z"
       fill="#434756"
       id="path47" />
    <path
       d="m 88.7698,97.2031 c 0,0 -2.1843,2.3339 -7.9391,2.2675 0,0 -1.1949,-0.0337 -1.2825,1.4004 -0.114,1.871 0,20.004 0,20.004 0,0 8.1122,-1.806 9.2216,-23.6719 z"
       fill="#434756"
       id="path48" />
  </g>
  <path
     d="m 103.65,64 c 0,0 -2.365,14.0233 -5.5895,17.8818 0,0 1.4026,-5.7086 0.7268,-9.2537 C 98.1114,69.083 98.7028,69.9412 103.65,64 Z"
     fill="#434756"
     id="path49" />
  <g
     id="side_abs">
    <path
       d="m 59.7827,80.3086 c 0,0 1.6662,1.0829 3.4189,1.2768 1.7517,0.1939 1.7965,2.3566 0.4967,2.3842 -1.2998,0.0275 -3.1492,-0.6328 -3.9146,-3.661 z"
       fill="#434756"
       id="path24" />
    <path
       d="m 59.6382,75.5987 c 0,0 1.8189,1.0624 3.711,1.189 1.8922,0.1266 1.9848,2.3923 0.5832,2.4781 -1.4015,0.0857 -3.4077,-0.5257 -4.2942,-3.6681 z"
       fill="#434756"
       id="path25" />
    <path
       d="m 59.8711,70.9336 c 0,0 1.9227,1.1145 3.996,1.3023 2.0744,0.1878 2.0052,2.4403 0.456,2.4801 -1.5491,0.0398 -3.712,-0.6328 -4.453,-3.7824 z"
       fill="#434756"
       id="path26" />
    <path
       d="m 60.4033,85.207 c 0,0 1.198,1.0656 3.1645,1.2493 0,0 0.5252,-0.0623 0.7216,0.8542 0.1964,0.9165 -0.8702,1.2768 -1.6855,1.138 -0.8153,-0.1388 -1.9258,-1.0145 -2.2006,-3.2415 z"
       fill="#434756"
       id="path27" />
    <path
       d="m 61.2554,90.1531 c 0,0 3.3711,1.6358 3.8688,4.8646 0.4987,3.2298 1.1919,15.6973 3.2021,20.5413 0,0 -5.2897,-2.366 -6.0765,-6.422 -0.7867,-4.056 0.5303,-7.493 -0.9954,-18.9849 z"
       fill="#434756"
       id="path28" />
    <path
       d="m 97.2102,80.3086 c 0,0 -1.6662,1.0829 -3.4189,1.2768 -1.7517,0.1939 -1.7964,2.3566 -0.4967,2.3842 1.2998,0.0275 3.1492,-0.6328 3.9146,-3.661 z"
       fill="#434756"
       id="path50" />
    <path
       d="m 97.3553,75.5987 c 0,0 -1.8189,1.0624 -3.711,1.189 -1.8922,0.1266 -1.9848,2.3923 -0.5832,2.4781 1.4015,0.0857 3.4077,-0.5257 4.2942,-3.6681 z"
       fill="#434756"
       id="path51" />
    <path
       d="m 97.1218,70.9336 c 0,0 -1.9226,1.1145 -3.996,1.3023 -2.0743,0.1878 -2.0051,2.4403 -0.4559,2.4801 1.5491,0.0398 3.712,-0.6328 4.453,-3.7824 z"
       fill="#434756"
       id="path52" />
    <path
       d="m 96.5895,85.207 c 0,0 -1.198,1.0656 -3.1645,1.2493 0,0 -0.5252,-0.0623 -0.7216,0.8542 -0.1965,0.9165 0.8702,1.2768 1.6855,1.138 0.8153,-0.1388 1.9257,-1.0145 2.2006,-3.2415 z"
       fill="#434756"
       id="path53" />
    <path
       d="m 95.7379,90.1531 c 0,0 -3.3711,1.6358 -3.8688,4.8646 -0.4987,3.2298 -1.1919,15.6973 -3.2021,20.5413 0,0 5.2897,-2.366 6.0765,-6.422 0.7867,-4.055 -0.5303,-7.493 0.9954,-18.9849 z"
       fill="#434756"
       id="path54" />
  </g>
  <path
     d="m 72.0948,180.807 c 0,0 -2.2199,3.873 -2.5894,7.789 -0.3695,3.915 -2.855,14.276 -2.855,14.276 0,0 0.9008,-10.635 0.4997,-14.373 -0.401,-3.739 4.9447,-7.691 4.9447,-7.691 z"
     fill="#434756"
     id="path61" />
  <path
     d="m 62.2712,181.613 c 0,0 1.196,3.336 2.0276,3.963 0.8315,0.626 2.2881,-0.678 3.484,-3.65 1.196,-2.972 -4.4194,-1.929 -4.7838,-1.877 -0.3644,0.052 -1.0972,0.606 -0.7278,1.565 z"
     fill="#434756"
     id="path62" />
  <path
     d="m 66.0622,250.938 c 0,0 -0.5466,2.682 -0.6453,3.136 -0.0998,0.454 0.513,0.949 1.3741,0.949 0.861,0 1.9532,-0.165 1.7547,-1.278 -0.1985,-1.115 -0.288,-1.622 -0.3878,-1.911 -0.0997,-0.289 -1.2519,-1.474 -2.0957,-0.896 z"
     fill="#434756"
     id="path63" />
  <path
     d="m 64.7978,250.601 c 0,0 -0.3614,3.337 -1.2184,3.767 -0.857,0.429 -6.0968,0.561 -7.4811,0 -1.3842,-0.562 1.2194,-2.314 1.7141,-2.677 0.4946,-0.364 1.1868,-2.413 1.3181,-3.14 0.1313,-0.727 0.7552,-0.991 5.6673,2.05 z"
     fill="#434756"
     id="path64" />
  <path
     d="m 68.1579,249.984 c 0,0 -3.5563,-2.072 -7.2561,-3.485 0,0 -0.5964,-0.311 0,-1.124 0.5965,-0.813 1.3171,-3.422 1.3863,-4.164 0.0692,-0.742 5.3355,3.713 5.9879,5.719 0.3349,1.029 -0.0967,1.993 -0.1191,3.054 z"
     fill="#434756"
     id="path65" />
  <path
     d="m 67.4697,243.133 c 0,0 -3.1644,-2.842 -4.054,-3.669 -0.8896,-0.827 -0.4947,-3.206 0.3624,-2.843 0.857,0.364 4.0214,0.86 4.1527,1.389 0.1323,0.528 0.1975,5.453 -0.4611,5.123 z"
     fill="#434756"
     id="path66" />
  <g
     id="adductors">
    <path
       d="m 62.8955,114.338 c 0,0 13.9698,11.241 13.9698,13.66 0,8.585 -2.6688,18.695 -2.6688,18.695 0,0 1.0229,-13.919 -11.301,-32.355 z"
       fill="#434756"
       id="path55" />
    <path
       d="m 94.21,114.338 c 0,0 -13.9698,11.241 -13.9698,13.66 0,8.585 2.6688,18.695 2.6688,18.695 0,0 -1.0229,-13.919 11.301,-32.355 z"
       fill="#434756"
       id="path67" />
  </g>
  <g
     id="quadriceps">
    <path
       d="m 61.7513,115.556 c 0,0 -3.5135,19.988 4.0734,53.606 0,0 7.4841,-12.582 6.0317,-27.248 -0.7542,-7.611 -10.1051,-26.358 -10.1051,-26.358 z"
       fill="#434756"
       id="path56" />
    <path
       d="m 58.5267,130.424 c 0,0 1.1776,26.359 5.9238,41.67 0,0 1.2265,2.284 -2.0754,7.105 -1.483,2.167 -4.1996,-3.68 -5.5889,-13.443 -1.3894,-9.762 1.7415,-35.332 1.7415,-35.332 z"
       fill="#434756"
       id="path57" />
    <path
       d="m 73.936,148.727 c 0,0 -2.4387,15.536 -5.8159,20.957 -2.8591,4.588 -0.7532,9.071 1.1196,10.27 1.767,1.132 6.3961,-4.327 4.6973,-31.227 z"
       fill="#434756"
       id="path58" />
    <path
       d="m 95.3536,115.557 c 0,0 3.5135,19.988 -4.0734,53.605 0,0 -7.4841,-12.581 -6.0317,-27.248 0.7543,-7.611 10.1051,-26.357 10.1051,-26.357 z"
       fill="#434756"
       id="path68" />
    <path
       d="m 98.5783,130.424 c 0,0 -1.1777,26.359 -5.9238,41.67 0,0 -1.2265,2.284 2.0753,7.105 1.483,2.167 4.1996,-3.68 5.5902,-13.443 1.389,-9.762 -1.7417,-35.332 -1.7417,-35.332 z"
       fill="#434756"
       id="path69" />
    <path
       d="m 83.1692,148.727 c 0,0 2.4387,15.536 5.8159,20.957 2.859,4.588 0.7532,9.071 -1.1197,10.27 -1.7669,1.132 -6.396,-4.327 -4.6973,-31.227 z"
       fill="#434756"
       id="path70" />
  </g>
  <g
     id="calf">
    <path
       d="m 71.0064,188.66 c 0,0 2.9344,8.212 2.0275,16.318 -0.7044,6.302 -6.7605,28.206 -6.7605,28.206 0,0 1.6866,-19.518 4.7319,-44.524 z"
       fill="#434756"
       id="path59" />
    <path
       d="m 61.3433,184.959 c 0,0 -3.8444,9.853 -2.0265,17.222 1.8178,7.367 4.4795,18.075 4.5487,31.977 0,0 1.9044,-9.446 0.8081,-26.104 -0.6107,-9.27 -1.0412,-17.2 -3.3303,-23.094 z"
       fill="#434756"
       id="path60" />
    <path
       d="m 86.0989,188.66 c 0,0 -2.9344,8.212 -2.0275,16.318 0.7044,6.302 6.7605,28.206 6.7605,28.206 0,0 -1.6866,-19.518 -4.732,-44.524 z"
       fill="#434756"
       id="path71" />
    <path
       d="m 95.7623,184.959 c 0,0 3.8443,9.853 2.0265,17.222 -1.8179,7.367 -4.4795,18.075 -4.5487,31.977 0,0 -1.9044,-9.446 -0.8082,-26.104 0.6097,-9.27 1.0413,-17.2 3.3304,-23.094 z"
       fill="#434756"
       id="path72" />
  </g>
  <path
     d="m 85.0107,180.807 c 0,0 2.2199,3.874 2.5894,7.789 0.3695,3.916 2.855,14.277 2.855,14.277 0,0 -0.9008,-10.636 -0.4997,-14.374 0.401,-3.739 -4.9447,-7.691 -4.9447,-7.691 z"
     fill="#434756"
     id="path73" />
  <path
     d="m 94.8336,181.613 c 0,0 -1.1959,3.336 -2.0275,3.963 -0.8316,0.626 -2.2881,-0.678 -3.484,-3.65 -1.196,-2.972 4.4194,-1.929 4.7838,-1.877 0.3644,0.052 1.0972,0.606 0.7277,1.565 z"
     fill="#434756"
     id="path74" />
  <path
     d="m 91.0423,250.938 c 0,0 0.5466,2.682 0.6453,3.136 0.0998,0.454 -0.513,0.949 -1.3741,0.949 -0.8611,0 -1.9532,-0.165 -1.7547,-1.279 0.1985,-1.114 0.288,-1.621 0.3878,-1.91 0.0997,-0.289 1.2519,-1.474 2.0957,-0.896 z"
     fill="#434756"
     id="path75" />
  <path
     d="m 92.3076,250.601 c 0,0 0.3613,3.337 1.2184,3.767 0.857,0.429 6.0978,0.561 7.482,0 1.384,-0.562 -1.2193,-2.314 -1.714,-2.677 -0.4947,-0.364 -1.1868,-2.413 -1.3181,-3.14 -0.1323,-0.727 -0.7552,-0.991 -5.6673,2.05 z"
     fill="#434756"
     id="path76" />
  <path
     d="m 88.948,249.984 c 0,0 3.5563,-2.072 7.2562,-3.485 0,0 0.5964,-0.311 0,-1.124 -0.5965,-0.813 -1.3171,-3.422 -1.3863,-4.164 -0.0692,-0.742 -5.3355,3.713 -5.9879,5.719 -0.3349,1.029 0.0967,1.993 0.1191,3.054 z"
     fill="#434756"
     id="path77" />
  <path
     d="m 89.6356,243.133 c 0,0 3.1645,-2.842 4.054,-3.669 0.8896,-0.827 0.4947,-3.206 -0.3623,-2.843 -0.857,0.364 -4.0215,0.86 -4.1528,1.389 -0.1323,0.528 -0.1974,5.453 0.4611,5.123 z"
     fill="#434756"
     id="path78" />
</svg>
